<?xml version="1.0" encoding="utf-8" standalone="no"?>
<!DOCTYPE svg PUBLIC "-//W3C//DTD SVG 1.1//EN"
  "http://www.w3.org/Graphics/SVG/1.1/DTD/svg11.dtd">
<svg xmlns:xlink="http://www.w3.org/1999/xlink" width="864pt" height="432pt" viewBox="0 0 864 432" xmlns="http://www.w3.org/2000/svg" version="1.1">
 <metadata>
  <rdf:RDF xmlns:dc="http://purl.org/dc/elements/1.1/" xmlns:cc="http://creativecommons.org/ns#" xmlns:rdf="http://www.w3.org/1999/02/22-rdf-syntax-ns#">
   <cc:Work>
    <dc:type rdf:resource="http://purl.org/dc/dcmitype/StillImage"/>
    <dc:date>2026-05-15T14:41:16.884017</dc:date>
    <dc:format>image/svg+xml</dc:format>
    <dc:creator>
     <cc:Agent>
      <dc:title>Matplotlib v3.10.9, https://matplotlib.org/</dc:title>
     </cc:Agent>
    </dc:creator>
   </cc:Work>
  </rdf:RDF>
 </metadata>
 <defs>
  <style type="text/css">*{stroke-linejoin: round; stroke-linecap: butt}</style>
 </defs>
 <g id="figure_1">
  <g id="patch_1">
   <path d="M 0 432 
L 864 432 
L 864 0 
L 0 0 
z
" style="fill: #ffffff"/>
  </g>
  <g id="axes_1">
   <g id="patch_2">
    <path d="M 57.395 363.895 
L 853.2 363.895 
L 853.2 39.912 
L 57.395 39.912 
z
" style="fill: #ffffff"/>
   </g>
   <g id="patch_3">
    <path d="M 59.727371 363.895 
L 67.190958 363.895 
L 67.190958 233.158331 
L 59.727371 233.158331 
z
" clip-path="url(#pc931d52ced)" style="fill: #2693de"/>
   </g>
   <g id="patch_4">
    <path d="M 69.056855 363.895 
L 76.520443 363.895 
L 76.520443 164.169009 
L 69.056855 164.169009 
z
" clip-path="url(#pc931d52ced)" style="fill: #2693de"/>
   </g>
   <g id="patch_5">
    <path d="M 78.386339 363.895 
L 85.849927 363.895 
L 85.849927 172.363874 
L 78.386339 172.363874 
z
" clip-path="url(#pc931d52ced)" style="fill: #2693de"/>
   </g>
   <g id="patch_6">
    <path d="M 87.715824 363.895 
L 95.179411 363.895 
L 95.179411 242.115508 
L 87.715824 242.115508 
z
" clip-path="url(#pc931d52ced)" style="fill: #2693de"/>
   </g>
   <g id="patch_7">
    <path d="M 97.045308 363.895 
L 104.508895 363.895 
L 104.508895 248.023433 
L 97.045308 248.023433 
z
" clip-path="url(#pc931d52ced)" style="fill: #2693de"/>
   </g>
   <g id="patch_8">
    <path d="M 106.374792 363.895 
L 113.838379 363.895 
L 113.838379 212.385303 
L 106.374792 212.385303 
z
" clip-path="url(#pc931d52ced)" style="fill: #2693de"/>
   </g>
   <g id="patch_9">
    <path d="M 115.704276 363.895 
L 123.167863 363.895 
L 123.167863 166.455948 
L 115.704276 166.455948 
z
" clip-path="url(#pc931d52ced)" style="fill: #2693de"/>
   </g>
   <g id="patch_10">
    <path d="M 125.03376 363.895 
L 132.497348 363.895 
L 132.497348 220.580167 
L 125.03376 220.580167 
z
" clip-path="url(#pc931d52ced)" style="fill: #2693de"/>
   </g>
   <g id="patch_11">
    <path d="M 134.363244 363.895 
L 141.826832 363.895 
L 141.826832 226.869249 
L 134.363244 226.869249 
z
" clip-path="url(#pc931d52ced)" style="fill: #2693de"/>
   </g>
   <g id="patch_12">
    <path d="M 143.692729 363.895 
L 151.156316 363.895 
L 151.156316 247.26112 
L 143.692729 247.26112 
z
" clip-path="url(#pc931d52ced)" style="fill: #2693de"/>
   </g>
   <g id="patch_13">
    <path d="M 153.022213 363.895 
L 160.4858 363.895 
L 160.4858 278.515951 
L 153.022213 278.515951 
z
" clip-path="url(#pc931d52ced)" style="fill: #2693de"/>
   </g>
   <g id="patch_14">
    <path d="M 162.351697 363.895 
L 169.815284 363.895 
L 169.815284 313.772924 
L 162.351697 313.772924 
z
" clip-path="url(#pc931d52ced)" style="fill: #2693de"/>
   </g>
   <g id="patch_15">
    <path d="M 171.681181 363.895 
L 179.144768 363.895 
L 179.144768 351.697993 
L 171.681181 351.697993 
z
" clip-path="url(#pc931d52ced)" style="fill: #2693de"/>
   </g>
   <g id="patch_16">
    <path d="M 181.010665 363.895 
L 188.474253 363.895 
L 188.474253 363.895 
L 181.010665 363.895 
z
" clip-path="url(#pc931d52ced)" style="fill: #2693de"/>
   </g>
   <g id="patch_17">
    <path d="M 190.340149 363.895 
L 197.803737 363.895 
L 197.803737 363.895 
L 190.340149 363.895 
z
" clip-path="url(#pc931d52ced)" style="fill: #2693de"/>
   </g>
   <g id="patch_18">
    <path d="M 199.669634 363.895 
L 207.133221 363.895 
L 207.133221 363.895 
L 199.669634 363.895 
z
" clip-path="url(#pc931d52ced)" style="fill: #2693de"/>
   </g>
   <g id="patch_19">
    <path d="M 208.999118 363.895 
L 216.462705 363.895 
L 216.462705 363.895 
L 208.999118 363.895 
z
" clip-path="url(#pc931d52ced)" style="fill: #2693de"/>
   </g>
   <g id="patch_20">
    <path d="M 218.328602 363.895 
L 225.792189 363.895 
L 225.792189 363.895 
L 218.328602 363.895 
z
" clip-path="url(#pc931d52ced)" style="fill: #2693de"/>
   </g>
   <g id="patch_21">
    <path d="M 227.658086 363.895 
L 235.121674 363.895 
L 235.121674 363.895 
L 227.658086 363.895 
z
" clip-path="url(#pc931d52ced)" style="fill: #2693de"/>
   </g>
   <g id="patch_22">
    <path d="M 236.98757 363.895 
L 244.451158 363.895 
L 244.451158 363.895 
L 236.98757 363.895 
z
" clip-path="url(#pc931d52ced)" style="fill: #2693de"/>
   </g>
   <g id="patch_23">
    <path d="M 246.317055 363.895 
L 253.780642 363.895 
L 253.780642 363.895 
L 246.317055 363.895 
z
" clip-path="url(#pc931d52ced)" style="fill: #2693de"/>
   </g>
   <g id="patch_24">
    <path d="M 255.646539 363.895 
L 263.110126 363.895 
L 263.110126 363.895 
L 255.646539 363.895 
z
" clip-path="url(#pc931d52ced)" style="fill: #2693de"/>
   </g>
   <g id="patch_25">
    <path d="M 264.976023 363.895 
L 272.43961 363.895 
L 272.43961 363.895 
L 264.976023 363.895 
z
" clip-path="url(#pc931d52ced)" style="fill: #2693de"/>
   </g>
   <g id="patch_26">
    <path d="M 274.305507 363.895 
L 281.769094 363.895 
L 281.769094 363.895 
L 274.305507 363.895 
z
" clip-path="url(#pc931d52ced)" style="fill: #2693de"/>
   </g>
   <g id="patch_27">
    <path d="M 283.634991 363.895 
L 291.098579 363.895 
L 291.098579 363.895 
L 283.634991 363.895 
z
" clip-path="url(#pc931d52ced)" style="fill: #2693de"/>
   </g>
   <g id="patch_28">
    <path d="M 292.964475 363.895 
L 300.428063 363.895 
L 300.428063 363.895 
L 292.964475 363.895 
z
" clip-path="url(#pc931d52ced)" style="fill: #2693de"/>
   </g>
   <g id="patch_29">
    <path d="M 302.29396 363.895 
L 309.757547 363.895 
L 309.757547 363.895 
L 302.29396 363.895 
z
" clip-path="url(#pc931d52ced)" style="fill: #2693de"/>
   </g>
   <g id="patch_30">
    <path d="M 311.623444 363.895 
L 319.087031 363.895 
L 319.087031 363.895 
L 311.623444 363.895 
z
" clip-path="url(#pc931d52ced)" style="fill: #2693de"/>
   </g>
   <g id="patch_31">
    <path d="M 320.952928 363.895 
L 328.416515 363.895 
L 328.416515 363.895 
L 320.952928 363.895 
z
" clip-path="url(#pc931d52ced)" style="fill: #2693de"/>
   </g>
   <g id="patch_32">
    <path d="M 330.282412 363.895 
L 337.745999 363.895 
L 337.745999 363.895 
L 330.282412 363.895 
z
" clip-path="url(#pc931d52ced)" style="fill: #2693de"/>
   </g>
   <g id="patch_33">
    <path d="M 339.611896 363.895 
L 347.075484 363.895 
L 347.075484 363.895 
L 339.611896 363.895 
z
" clip-path="url(#pc931d52ced)" style="fill: #2693de"/>
   </g>
   <g id="patch_34">
    <path d="M 348.94138 363.895 
L 356.404968 363.895 
L 356.404968 363.895 
L 348.94138 363.895 
z
" clip-path="url(#pc931d52ced)" style="fill: #2693de"/>
   </g>
   <g id="patch_35">
    <path d="M 358.270865 363.895 
L 365.734452 363.895 
L 365.734452 363.895 
L 358.270865 363.895 
z
" clip-path="url(#pc931d52ced)" style="fill: #2693de"/>
   </g>
   <g id="patch_36">
    <path d="M 367.600349 363.895 
L 375.063936 363.895 
L 375.063936 363.895 
L 367.600349 363.895 
z
" clip-path="url(#pc931d52ced)" style="fill: #2693de"/>
   </g>
   <g id="patch_37">
    <path d="M 376.929833 363.895 
L 384.39342 363.895 
L 384.39342 363.895 
L 376.929833 363.895 
z
" clip-path="url(#pc931d52ced)" style="fill: #2693de"/>
   </g>
   <g id="patch_38">
    <path d="M 386.259317 363.895 
L 393.722904 363.895 
L 393.722904 363.895 
L 386.259317 363.895 
z
" clip-path="url(#pc931d52ced)" style="fill: #2693de"/>
   </g>
   <g id="patch_39">
    <path d="M 395.588801 363.895 
L 403.052389 363.895 
L 403.052389 363.895 
L 395.588801 363.895 
z
" clip-path="url(#pc931d52ced)" style="fill: #2693de"/>
   </g>
   <g id="patch_40">
    <path d="M 404.918285 363.895 
L 412.381873 363.895 
L 412.381873 363.895 
L 404.918285 363.895 
z
" clip-path="url(#pc931d52ced)" style="fill: #2693de"/>
   </g>
   <g id="patch_41">
    <path d="M 414.24777 363.895 
L 421.711357 363.895 
L 421.711357 363.895 
L 414.24777 363.895 
z
" clip-path="url(#pc931d52ced)" style="fill: #2693de"/>
   </g>
   <g id="patch_42">
    <path d="M 423.577254 363.895 
L 431.040841 363.895 
L 431.040841 363.895 
L 423.577254 363.895 
z
" clip-path="url(#pc931d52ced)" style="fill: #2693de"/>
   </g>
   <g id="patch_43">
    <path d="M 432.906738 363.895 
L 440.370325 363.895 
L 440.370325 363.895 
L 432.906738 363.895 
z
" clip-path="url(#pc931d52ced)" style="fill: #2693de"/>
   </g>
   <g id="patch_44">
    <path d="M 442.236222 363.895 
L 449.699809 363.895 
L 449.699809 363.895 
L 442.236222 363.895 
z
" clip-path="url(#pc931d52ced)" style="fill: #2693de"/>
   </g>
   <g id="patch_45">
    <path d="M 451.565706 363.895 
L 459.029294 363.895 
L 459.029294 363.895 
L 451.565706 363.895 
z
" clip-path="url(#pc931d52ced)" style="fill: #2693de"/>
   </g>
   <g id="patch_46">
    <path d="M 460.895191 363.895 
L 468.358778 363.895 
L 468.358778 363.895 
L 460.895191 363.895 
z
" clip-path="url(#pc931d52ced)" style="fill: #2693de"/>
   </g>
   <g id="patch_47">
    <path d="M 470.224675 363.895 
L 477.688262 363.895 
L 477.688262 363.895 
L 470.224675 363.895 
z
" clip-path="url(#pc931d52ced)" style="fill: #2693de"/>
   </g>
   <g id="patch_48">
    <path d="M 479.554159 363.895 
L 487.017746 363.895 
L 487.017746 363.895 
L 479.554159 363.895 
z
" clip-path="url(#pc931d52ced)" style="fill: #2693de"/>
   </g>
   <g id="patch_49">
    <path d="M 488.883643 363.895 
L 496.34723 363.895 
L 496.34723 363.895 
L 488.883643 363.895 
z
" clip-path="url(#pc931d52ced)" style="fill: #2693de"/>
   </g>
   <g id="patch_50">
    <path d="M 498.213127 363.895 
L 505.676715 363.895 
L 505.676715 363.895 
L 498.213127 363.895 
z
" clip-path="url(#pc931d52ced)" style="fill: #2693de"/>
   </g>
   <g id="patch_51">
    <path d="M 507.542611 363.895 
L 515.006199 363.895 
L 515.006199 363.895 
L 507.542611 363.895 
z
" clip-path="url(#pc931d52ced)" style="fill: #2693de"/>
   </g>
   <g id="patch_52">
    <path d="M 516.872096 363.895 
L 524.335683 363.895 
L 524.335683 363.895 
L 516.872096 363.895 
z
" clip-path="url(#pc931d52ced)" style="fill: #2693de"/>
   </g>
   <g id="patch_53">
    <path d="M 526.20158 363.895 
L 533.665167 363.895 
L 533.665167 363.895 
L 526.20158 363.895 
z
" clip-path="url(#pc931d52ced)" style="fill: #2693de"/>
   </g>
   <g id="patch_54">
    <path d="M 535.531064 363.895 
L 542.994651 363.895 
L 542.994651 363.895 
L 535.531064 363.895 
z
" clip-path="url(#pc931d52ced)" style="fill: #2693de"/>
   </g>
   <g id="patch_55">
    <path d="M 544.860548 363.895 
L 552.324135 363.895 
L 552.324135 363.895 
L 544.860548 363.895 
z
" clip-path="url(#pc931d52ced)" style="fill: #2693de"/>
   </g>
   <g id="patch_56">
    <path d="M 554.190032 363.895 
L 561.65362 363.895 
L 561.65362 363.895 
L 554.190032 363.895 
z
" clip-path="url(#pc931d52ced)" style="fill: #2693de"/>
   </g>
   <g id="patch_57">
    <path d="M 563.519516 363.895 
L 570.983104 363.895 
L 570.983104 363.895 
L 563.519516 363.895 
z
" clip-path="url(#pc931d52ced)" style="fill: #2693de"/>
   </g>
   <g id="patch_58">
    <path d="M 572.849001 363.895 
L 580.312588 363.895 
L 580.312588 363.895 
L 572.849001 363.895 
z
" clip-path="url(#pc931d52ced)" style="fill: #2693de"/>
   </g>
   <g id="patch_59">
    <path d="M 582.178485 363.895 
L 589.642072 363.895 
L 589.642072 363.895 
L 582.178485 363.895 
z
" clip-path="url(#pc931d52ced)" style="fill: #2693de"/>
   </g>
   <g id="patch_60">
    <path d="M 591.507969 363.895 
L 598.971556 363.895 
L 598.971556 363.895 
L 591.507969 363.895 
z
" clip-path="url(#pc931d52ced)" style="fill: #2693de"/>
   </g>
   <g id="patch_61">
    <path d="M 600.837453 363.895 
L 608.30104 363.895 
L 608.30104 363.895 
L 600.837453 363.895 
z
" clip-path="url(#pc931d52ced)" style="fill: #2693de"/>
   </g>
   <g id="patch_62">
    <path d="M 610.166937 363.895 
L 617.630525 363.895 
L 617.630525 363.895 
L 610.166937 363.895 
z
" clip-path="url(#pc931d52ced)" style="fill: #2693de"/>
   </g>
   <g id="patch_63">
    <path d="M 619.496421 363.895 
L 626.960009 363.895 
L 626.960009 363.895 
L 619.496421 363.895 
z
" clip-path="url(#pc931d52ced)" style="fill: #2693de"/>
   </g>
   <g id="patch_64">
    <path d="M 628.825906 363.895 
L 636.289493 363.895 
L 636.289493 363.895 
L 628.825906 363.895 
z
" clip-path="url(#pc931d52ced)" style="fill: #2693de"/>
   </g>
   <g id="patch_65">
    <path d="M 638.15539 363.895 
L 645.618977 363.895 
L 645.618977 363.895 
L 638.15539 363.895 
z
" clip-path="url(#pc931d52ced)" style="fill: #2693de"/>
   </g>
   <g id="patch_66">
    <path d="M 647.484874 363.895 
L 654.948461 363.895 
L 654.948461 363.895 
L 647.484874 363.895 
z
" clip-path="url(#pc931d52ced)" style="fill: #2693de"/>
   </g>
   <g id="patch_67">
    <path d="M 656.814358 363.895 
L 664.277945 363.895 
L 664.277945 363.895 
L 656.814358 363.895 
z
" clip-path="url(#pc931d52ced)" style="fill: #2693de"/>
   </g>
   <g id="patch_68">
    <path d="M 666.143842 363.895 
L 673.60743 363.895 
L 673.60743 363.895 
L 666.143842 363.895 
z
" clip-path="url(#pc931d52ced)" style="fill: #2693de"/>
   </g>
   <g id="patch_69">
    <path d="M 675.473326 363.895 
L 682.936914 363.895 
L 682.936914 350.93568 
L 675.473326 350.93568 
z
" clip-path="url(#pc931d52ced)" style="fill: #2693de"/>
   </g>
   <g id="patch_70">
    <path d="M 684.802811 363.895 
L 692.266398 363.895 
L 692.266398 353.032041 
L 684.802811 353.032041 
z
" clip-path="url(#pc931d52ced)" style="fill: #2693de"/>
   </g>
   <g id="patch_71">
    <path d="M 694.132295 363.895 
L 701.595882 363.895 
L 701.595882 73.453769 
L 694.132295 73.453769 
z
" clip-path="url(#pc931d52ced)" style="fill: #2693de"/>
   </g>
   <g id="patch_72">
    <path d="M 703.461779 363.895 
L 710.925366 363.895 
L 710.925366 165.503057 
L 703.461779 165.503057 
z
" clip-path="url(#pc931d52ced)" style="fill: #2693de"/>
   </g>
   <g id="patch_73">
    <path d="M 712.791263 363.895 
L 720.254851 363.895 
L 720.254851 219.436698 
L 712.791263 219.436698 
z
" clip-path="url(#pc931d52ced)" style="fill: #2693de"/>
   </g>
   <g id="patch_74">
    <path d="M 722.120747 363.895 
L 729.584335 363.895 
L 729.584335 -1153.488909 
L 722.120747 -1153.488909 
z
" clip-path="url(#pc931d52ced)" style="fill: #2693de"/>
   </g>
   <g id="patch_75">
    <path d="M 731.450232 363.895 
L 738.913819 363.895 
L 738.913819 -2876.887891 
L 731.450232 -2876.887891 
z
" clip-path="url(#pc931d52ced)" style="fill: #2693de"/>
   </g>
   <g id="patch_76">
    <path d="M 740.779716 363.895 
L 748.243303 363.895 
L 748.243303 -732.120431 
L 740.779716 -732.120431 
z
" clip-path="url(#pc931d52ced)" style="fill: #2693de"/>
   </g>
   <g id="patch_77">
    <path d="M 750.1092 363.895 
L 757.572787 363.895 
L 757.572787 -1569.330619 
L 750.1092 -1569.330619 
z
" clip-path="url(#pc931d52ced)" style="fill: #2693de"/>
   </g>
   <g id="patch_78">
    <path d="M 759.438684 363.895 
L 766.902271 363.895 
L 766.902271 -1668.812458 
L 759.438684 -1668.812458 
z
" clip-path="url(#pc931d52ced)" style="fill: #2693de"/>
   </g>
   <g id="patch_79">
    <path d="M 768.768168 363.895 
L 776.231756 363.895 
L 776.231756 -1584.958034 
L 768.768168 -1584.958034 
z
" clip-path="url(#pc931d52ced)" style="fill: #2693de"/>
   </g>
   <g id="patch_80">
    <path d="M 778.097652 363.895 
L 785.56124 363.895 
L 785.56124 -1769.818922 
L 778.097652 -1769.818922 
z
" clip-path="url(#pc931d52ced)" style="fill: #2693de"/>
   </g>
   <g id="patch_81">
    <path d="M 787.427137 363.895 
L 794.890724 363.895 
L 794.890724 -1765.054466 
L 787.427137 -1765.054466 
z
" clip-path="url(#pc931d52ced)" style="fill: #2693de"/>
   </g>
   <g id="patch_82">
    <path d="M 796.756621 363.895 
L 804.220208 363.895 
L 804.220208 -1740.469874 
L 796.756621 -1740.469874 
z
" clip-path="url(#pc931d52ced)" style="fill: #2693de"/>
   </g>
   <g id="patch_83">
    <path d="M 806.086105 363.895 
L 813.549692 363.895 
L 813.549692 -1774.011644 
L 806.086105 -1774.011644 
z
" clip-path="url(#pc931d52ced)" style="fill: #2693de"/>
   </g>
   <g id="patch_84">
    <path d="M 815.415589 363.895 
L 822.879176 363.895 
L 822.879176 -2405.397337 
L 815.415589 -2405.397337 
z
" clip-path="url(#pc931d52ced)" style="fill: #2693de"/>
   </g>
   <g id="patch_85">
    <path d="M 824.745073 363.895 
L 832.208661 363.895 
L 832.208661 -3925.449342 
L 824.745073 -3925.449342 
z
" clip-path="url(#pc931d52ced)" style="fill: #2693de"/>
   </g>
   <g id="patch_86">
    <path d="M 834.074557 363.895 
L 841.538145 363.895 
L 841.538145 -3902.770532 
L 834.074557 -3902.770532 
z
" clip-path="url(#pc931d52ced)" style="fill: #2693de"/>
   </g>
   <g id="patch_87">
    <path d="M 843.404042 363.895 
L 850.867629 363.895 
L 850.867629 348.839319 
L 843.404042 348.839319 
z
" clip-path="url(#pc931d52ced)" style="fill: #2693de"/>
   </g>
   <g id="matplotlib.axis_1">
    <g id="xtick_1">
     <g id="line2d_1">
      <defs>
       <path id="mdf4f8563ec" d="M 0 0 
L 0 3.5 
" style="stroke: #000000; stroke-width: 0.8"/>
      </defs>
      <g>
       <use xlink:href="#mdf4f8563ec" x="63.459165" y="363.895" style="stroke: #000000; stroke-width: 0.8"/>
      </g>
     </g>
     <g id="text_1">
      <!-- 2014-08-10 00:00 -->
      <g transform="translate(61.795415 406.94) rotate(-90) scale(0.08 -0.08)">
       <defs>
        <path id="DejaVuSans-32" d="M 1228 531 
L 3431 531 
L 3431 0 
L 469 0 
L 469 531 
Q 828 903 1448 1529 
Q 2069 2156 2228 2338 
Q 2531 2678 2651 2914 
Q 2772 3150 2772 3378 
Q 2772 3750 2511 3984 
Q 2250 4219 1831 4219 
Q 1534 4219 1204 4116 
Q 875 4013 500 3803 
L 500 4441 
Q 881 4594 1212 4672 
Q 1544 4750 1819 4750 
Q 2544 4750 2975 4387 
Q 3406 4025 3406 3419 
Q 3406 3131 3298 2873 
Q 3191 2616 2906 2266 
Q 2828 2175 2409 1742 
Q 1991 1309 1228 531 
z
" transform="scale(0.015625)"/>
        <path id="DejaVuSans-30" d="M 2034 4250 
Q 1547 4250 1301 3770 
Q 1056 3291 1056 2328 
Q 1056 1369 1301 889 
Q 1547 409 2034 409 
Q 2525 409 2770 889 
Q 3016 1369 3016 2328 
Q 3016 3291 2770 3770 
Q 2525 4250 2034 4250 
z
M 2034 4750 
Q 2819 4750 3233 4129 
Q 3647 3509 3647 2328 
Q 3647 1150 3233 529 
Q 2819 -91 2034 -91 
Q 1250 -91 836 529 
Q 422 1150 422 2328 
Q 422 3509 836 4129 
Q 1250 4750 2034 4750 
z
" transform="scale(0.015625)"/>
        <path id="DejaVuSans-31" d="M 794 531 
L 1825 531 
L 1825 4091 
L 703 3866 
L 703 4441 
L 1819 4666 
L 2450 4666 
L 2450 531 
L 3481 531 
L 3481 0 
L 794 0 
L 794 531 
z
" transform="scale(0.015625)"/>
        <path id="DejaVuSans-34" d="M 2419 4116 
L 825 1625 
L 2419 1625 
L 2419 4116 
z
M 2253 4666 
L 3047 4666 
L 3047 1625 
L 3713 1625 
L 3713 1100 
L 3047 1100 
L 3047 0 
L 2419 0 
L 2419 1100 
L 313 1100 
L 313 1709 
L 2253 4666 
z
" transform="scale(0.015625)"/>
        <path id="DejaVuSans-2d" d="M 313 2009 
L 1997 2009 
L 1997 1497 
L 313 1497 
L 313 2009 
z
" transform="scale(0.015625)"/>
        <path id="DejaVuSans-38" d="M 2034 2216 
Q 1584 2216 1326 1975 
Q 1069 1734 1069 1313 
Q 1069 891 1326 650 
Q 1584 409 2034 409 
Q 2484 409 2743 651 
Q 3003 894 3003 1313 
Q 3003 1734 2745 1975 
Q 2488 2216 2034 2216 
z
M 1403 2484 
Q 997 2584 770 2862 
Q 544 3141 544 3541 
Q 544 4100 942 4425 
Q 1341 4750 2034 4750 
Q 2731 4750 3128 4425 
Q 3525 4100 3525 3541 
Q 3525 3141 3298 2862 
Q 3072 2584 2669 2484 
Q 3125 2378 3379 2068 
Q 3634 1759 3634 1313 
Q 3634 634 3220 271 
Q 2806 -91 2034 -91 
Q 1263 -91 848 271 
Q 434 634 434 1313 
Q 434 1759 690 2068 
Q 947 2378 1403 2484 
z
M 1172 3481 
Q 1172 3119 1398 2916 
Q 1625 2713 2034 2713 
Q 2441 2713 2670 2916 
Q 2900 3119 2900 3481 
Q 2900 3844 2670 4047 
Q 2441 4250 2034 4250 
Q 1625 4250 1398 4047 
Q 1172 3844 1172 3481 
z
" transform="scale(0.015625)"/>
        <path id="DejaVuSans-20" transform="scale(0.015625)"/>
        <path id="DejaVuSans-3a" d="M 750 794 
L 1409 794 
L 1409 0 
L 750 0 
L 750 794 
z
M 750 3309 
L 1409 3309 
L 1409 2516 
L 750 2516 
L 750 3309 
z
" transform="scale(0.015625)"/>
       </defs>
       <use xlink:href="#DejaVuSans-32"/>
       <use xlink:href="#DejaVuSans-30" transform="translate(63.623047 0)"/>
       <use xlink:href="#DejaVuSans-31" transform="translate(127.246094 0)"/>
       <use xlink:href="#DejaVuSans-34" transform="translate(190.869141 0)"/>
       <use xlink:href="#DejaVuSans-2d" transform="translate(254.492188 0)"/>
       <use xlink:href="#DejaVuSans-30" transform="translate(290.576172 0)"/>
       <use xlink:href="#DejaVuSans-38" transform="translate(354.199219 0)"/>
       <use xlink:href="#DejaVuSans-2d" transform="translate(417.822266 0)"/>
       <use xlink:href="#DejaVuSans-31" transform="translate(453.90625 0)"/>
       <use xlink:href="#DejaVuSans-30" transform="translate(517.529297 0)"/>
       <use xlink:href="#DejaVuSans-20" transform="translate(581.152344 0)"/>
       <use xlink:href="#DejaVuSans-30" transform="translate(612.939453 0)"/>
       <use xlink:href="#DejaVuSans-30" transform="translate(676.5625 0)"/>
       <use xlink:href="#DejaVuSans-3a" transform="translate(740.185547 0)"/>
       <use xlink:href="#DejaVuSans-30" transform="translate(773.876953 0)"/>
       <use xlink:href="#DejaVuSans-30" transform="translate(837.5 0)"/>
      </g>
     </g>
    </g>
    <g id="xtick_2">
     <g id="line2d_2">
      <g>
       <use xlink:href="#mdf4f8563ec" x="100.777101" y="363.895" style="stroke: #000000; stroke-width: 0.8"/>
      </g>
     </g>
     <g id="text_2">
      <!-- 2014-08-10 01:00 -->
      <g transform="translate(99.113351 406.94) rotate(-90) scale(0.08 -0.08)">
       <use xlink:href="#DejaVuSans-32"/>
       <use xlink:href="#DejaVuSans-30" transform="translate(63.623047 0)"/>
       <use xlink:href="#DejaVuSans-31" transform="translate(127.246094 0)"/>
       <use xlink:href="#DejaVuSans-34" transform="translate(190.869141 0)"/>
       <use xlink:href="#DejaVuSans-2d" transform="translate(254.492188 0)"/>
       <use xlink:href="#DejaVuSans-30" transform="translate(290.576172 0)"/>
       <use xlink:href="#DejaVuSans-38" transform="translate(354.199219 0)"/>
       <use xlink:href="#DejaVuSans-2d" transform="translate(417.822266 0)"/>
       <use xlink:href="#DejaVuSans-31" transform="translate(453.90625 0)"/>
       <use xlink:href="#DejaVuSans-30" transform="translate(517.529297 0)"/>
       <use xlink:href="#DejaVuSans-20" transform="translate(581.152344 0)"/>
       <use xlink:href="#DejaVuSans-30" transform="translate(612.939453 0)"/>
       <use xlink:href="#DejaVuSans-31" transform="translate(676.5625 0)"/>
       <use xlink:href="#DejaVuSans-3a" transform="translate(740.185547 0)"/>
       <use xlink:href="#DejaVuSans-30" transform="translate(773.876953 0)"/>
       <use xlink:href="#DejaVuSans-30" transform="translate(837.5 0)"/>
      </g>
     </g>
    </g>
    <g id="xtick_3">
     <g id="line2d_3">
      <g>
       <use xlink:href="#mdf4f8563ec" x="138.095038" y="363.895" style="stroke: #000000; stroke-width: 0.8"/>
      </g>
     </g>
     <g id="text_3">
      <!-- 2014-08-10 02:00 -->
      <g transform="translate(136.431288 406.94) rotate(-90) scale(0.08 -0.08)">
       <use xlink:href="#DejaVuSans-32"/>
       <use xlink:href="#DejaVuSans-30" transform="translate(63.623047 0)"/>
       <use xlink:href="#DejaVuSans-31" transform="translate(127.246094 0)"/>
       <use xlink:href="#DejaVuSans-34" transform="translate(190.869141 0)"/>
       <use xlink:href="#DejaVuSans-2d" transform="translate(254.492188 0)"/>
       <use xlink:href="#DejaVuSans-30" transform="translate(290.576172 0)"/>
       <use xlink:href="#DejaVuSans-38" transform="translate(354.199219 0)"/>
       <use xlink:href="#DejaVuSans-2d" transform="translate(417.822266 0)"/>
       <use xlink:href="#DejaVuSans-31" transform="translate(453.90625 0)"/>
       <use xlink:href="#DejaVuSans-30" transform="translate(517.529297 0)"/>
       <use xlink:href="#DejaVuSans-20" transform="translate(581.152344 0)"/>
       <use xlink:href="#DejaVuSans-30" transform="translate(612.939453 0)"/>
       <use xlink:href="#DejaVuSans-32" transform="translate(676.5625 0)"/>
       <use xlink:href="#DejaVuSans-3a" transform="translate(740.185547 0)"/>
       <use xlink:href="#DejaVuSans-30" transform="translate(773.876953 0)"/>
       <use xlink:href="#DejaVuSans-30" transform="translate(837.5 0)"/>
      </g>
     </g>
    </g>
    <g id="xtick_4">
     <g id="line2d_4">
      <g>
       <use xlink:href="#mdf4f8563ec" x="175.412975" y="363.895" style="stroke: #000000; stroke-width: 0.8"/>
      </g>
     </g>
     <g id="text_4">
      <!-- 2014-08-10 03:00 -->
      <g transform="translate(173.749225 406.94) rotate(-90) scale(0.08 -0.08)">
       <defs>
        <path id="DejaVuSans-33" d="M 2597 2516 
Q 3050 2419 3304 2112 
Q 3559 1806 3559 1356 
Q 3559 666 3084 287 
Q 2609 -91 1734 -91 
Q 1441 -91 1130 -33 
Q 819 25 488 141 
L 488 750 
Q 750 597 1062 519 
Q 1375 441 1716 441 
Q 2309 441 2620 675 
Q 2931 909 2931 1356 
Q 2931 1769 2642 2001 
Q 2353 2234 1838 2234 
L 1294 2234 
L 1294 2753 
L 1863 2753 
Q 2328 2753 2575 2939 
Q 2822 3125 2822 3475 
Q 2822 3834 2567 4026 
Q 2313 4219 1838 4219 
Q 1578 4219 1281 4162 
Q 984 4106 628 3988 
L 628 4550 
Q 988 4650 1302 4700 
Q 1616 4750 1894 4750 
Q 2613 4750 3031 4423 
Q 3450 4097 3450 3541 
Q 3450 3153 3228 2886 
Q 3006 2619 2597 2516 
z
" transform="scale(0.015625)"/>
       </defs>
       <use xlink:href="#DejaVuSans-32"/>
       <use xlink:href="#DejaVuSans-30" transform="translate(63.623047 0)"/>
       <use xlink:href="#DejaVuSans-31" transform="translate(127.246094 0)"/>
       <use xlink:href="#DejaVuSans-34" transform="translate(190.869141 0)"/>
       <use xlink:href="#DejaVuSans-2d" transform="translate(254.492188 0)"/>
       <use xlink:href="#DejaVuSans-30" transform="translate(290.576172 0)"/>
       <use xlink:href="#DejaVuSans-38" transform="translate(354.199219 0)"/>
       <use xlink:href="#DejaVuSans-2d" transform="translate(417.822266 0)"/>
       <use xlink:href="#DejaVuSans-31" transform="translate(453.90625 0)"/>
       <use xlink:href="#DejaVuSans-30" transform="translate(517.529297 0)"/>
       <use xlink:href="#DejaVuSans-20" transform="translate(581.152344 0)"/>
       <use xlink:href="#DejaVuSans-30" transform="translate(612.939453 0)"/>
       <use xlink:href="#DejaVuSans-33" transform="translate(676.5625 0)"/>
       <use xlink:href="#DejaVuSans-3a" transform="translate(740.185547 0)"/>
       <use xlink:href="#DejaVuSans-30" transform="translate(773.876953 0)"/>
       <use xlink:href="#DejaVuSans-30" transform="translate(837.5 0)"/>
      </g>
     </g>
    </g>
    <g id="xtick_5">
     <g id="line2d_5">
      <g>
       <use xlink:href="#mdf4f8563ec" x="212.730911" y="363.895" style="stroke: #000000; stroke-width: 0.8"/>
      </g>
     </g>
     <g id="text_5">
      <!-- 2014-08-10 04:00 -->
      <g transform="translate(211.067161 406.94) rotate(-90) scale(0.08 -0.08)">
       <use xlink:href="#DejaVuSans-32"/>
       <use xlink:href="#DejaVuSans-30" transform="translate(63.623047 0)"/>
       <use xlink:href="#DejaVuSans-31" transform="translate(127.246094 0)"/>
       <use xlink:href="#DejaVuSans-34" transform="translate(190.869141 0)"/>
       <use xlink:href="#DejaVuSans-2d" transform="translate(254.492188 0)"/>
       <use xlink:href="#DejaVuSans-30" transform="translate(290.576172 0)"/>
       <use xlink:href="#DejaVuSans-38" transform="translate(354.199219 0)"/>
       <use xlink:href="#DejaVuSans-2d" transform="translate(417.822266 0)"/>
       <use xlink:href="#DejaVuSans-31" transform="translate(453.90625 0)"/>
       <use xlink:href="#DejaVuSans-30" transform="translate(517.529297 0)"/>
       <use xlink:href="#DejaVuSans-20" transform="translate(581.152344 0)"/>
       <use xlink:href="#DejaVuSans-30" transform="translate(612.939453 0)"/>
       <use xlink:href="#DejaVuSans-34" transform="translate(676.5625 0)"/>
       <use xlink:href="#DejaVuSans-3a" transform="translate(740.185547 0)"/>
       <use xlink:href="#DejaVuSans-30" transform="translate(773.876953 0)"/>
       <use xlink:href="#DejaVuSans-30" transform="translate(837.5 0)"/>
      </g>
     </g>
    </g>
    <g id="xtick_6">
     <g id="line2d_6">
      <g>
       <use xlink:href="#mdf4f8563ec" x="250.048848" y="363.895" style="stroke: #000000; stroke-width: 0.8"/>
      </g>
     </g>
     <g id="text_6">
      <!-- 2014-08-10 05:00 -->
      <g transform="translate(248.385098 406.94) rotate(-90) scale(0.08 -0.08)">
       <defs>
        <path id="DejaVuSans-35" d="M 691 4666 
L 3169 4666 
L 3169 4134 
L 1269 4134 
L 1269 2991 
Q 1406 3038 1543 3061 
Q 1681 3084 1819 3084 
Q 2600 3084 3056 2656 
Q 3513 2228 3513 1497 
Q 3513 744 3044 326 
Q 2575 -91 1722 -91 
Q 1428 -91 1123 -41 
Q 819 9 494 109 
L 494 744 
Q 775 591 1075 516 
Q 1375 441 1709 441 
Q 2250 441 2565 725 
Q 2881 1009 2881 1497 
Q 2881 1984 2565 2268 
Q 2250 2553 1709 2553 
Q 1456 2553 1204 2497 
Q 953 2441 691 2322 
L 691 4666 
z
" transform="scale(0.015625)"/>
       </defs>
       <use xlink:href="#DejaVuSans-32"/>
       <use xlink:href="#DejaVuSans-30" transform="translate(63.623047 0)"/>
       <use xlink:href="#DejaVuSans-31" transform="translate(127.246094 0)"/>
       <use xlink:href="#DejaVuSans-34" transform="translate(190.869141 0)"/>
       <use xlink:href="#DejaVuSans-2d" transform="translate(254.492188 0)"/>
       <use xlink:href="#DejaVuSans-30" transform="translate(290.576172 0)"/>
       <use xlink:href="#DejaVuSans-38" transform="translate(354.199219 0)"/>
       <use xlink:href="#DejaVuSans-2d" transform="translate(417.822266 0)"/>
       <use xlink:href="#DejaVuSans-31" transform="translate(453.90625 0)"/>
       <use xlink:href="#DejaVuSans-30" transform="translate(517.529297 0)"/>
       <use xlink:href="#DejaVuSans-20" transform="translate(581.152344 0)"/>
       <use xlink:href="#DejaVuSans-30" transform="translate(612.939453 0)"/>
       <use xlink:href="#DejaVuSans-35" transform="translate(676.5625 0)"/>
       <use xlink:href="#DejaVuSans-3a" transform="translate(740.185547 0)"/>
       <use xlink:href="#DejaVuSans-30" transform="translate(773.876953 0)"/>
       <use xlink:href="#DejaVuSans-30" transform="translate(837.5 0)"/>
      </g>
     </g>
    </g>
    <g id="xtick_7">
     <g id="line2d_7">
      <g>
       <use xlink:href="#mdf4f8563ec" x="287.366785" y="363.895" style="stroke: #000000; stroke-width: 0.8"/>
      </g>
     </g>
     <g id="text_7">
      <!-- 2014-08-10 06:00 -->
      <g transform="translate(285.703035 406.94) rotate(-90) scale(0.08 -0.08)">
       <defs>
        <path id="DejaVuSans-36" d="M 2113 2584 
Q 1688 2584 1439 2293 
Q 1191 2003 1191 1497 
Q 1191 994 1439 701 
Q 1688 409 2113 409 
Q 2538 409 2786 701 
Q 3034 994 3034 1497 
Q 3034 2003 2786 2293 
Q 2538 2584 2113 2584 
z
M 3366 4563 
L 3366 3988 
Q 3128 4100 2886 4159 
Q 2644 4219 2406 4219 
Q 1781 4219 1451 3797 
Q 1122 3375 1075 2522 
Q 1259 2794 1537 2939 
Q 1816 3084 2150 3084 
Q 2853 3084 3261 2657 
Q 3669 2231 3669 1497 
Q 3669 778 3244 343 
Q 2819 -91 2113 -91 
Q 1303 -91 875 529 
Q 447 1150 447 2328 
Q 447 3434 972 4092 
Q 1497 4750 2381 4750 
Q 2619 4750 2861 4703 
Q 3103 4656 3366 4563 
z
" transform="scale(0.015625)"/>
       </defs>
       <use xlink:href="#DejaVuSans-32"/>
       <use xlink:href="#DejaVuSans-30" transform="translate(63.623047 0)"/>
       <use xlink:href="#DejaVuSans-31" transform="translate(127.246094 0)"/>
       <use xlink:href="#DejaVuSans-34" transform="translate(190.869141 0)"/>
       <use xlink:href="#DejaVuSans-2d" transform="translate(254.492188 0)"/>
       <use xlink:href="#DejaVuSans-30" transform="translate(290.576172 0)"/>
       <use xlink:href="#DejaVuSans-38" transform="translate(354.199219 0)"/>
       <use xlink:href="#DejaVuSans-2d" transform="translate(417.822266 0)"/>
       <use xlink:href="#DejaVuSans-31" transform="translate(453.90625 0)"/>
       <use xlink:href="#DejaVuSans-30" transform="translate(517.529297 0)"/>
       <use xlink:href="#DejaVuSans-20" transform="translate(581.152344 0)"/>
       <use xlink:href="#DejaVuSans-30" transform="translate(612.939453 0)"/>
       <use xlink:href="#DejaVuSans-36" transform="translate(676.5625 0)"/>
       <use xlink:href="#DejaVuSans-3a" transform="translate(740.185547 0)"/>
       <use xlink:href="#DejaVuSans-30" transform="translate(773.876953 0)"/>
       <use xlink:href="#DejaVuSans-30" transform="translate(837.5 0)"/>
      </g>
     </g>
    </g>
    <g id="xtick_8">
     <g id="line2d_8">
      <g>
       <use xlink:href="#mdf4f8563ec" x="324.684722" y="363.895" style="stroke: #000000; stroke-width: 0.8"/>
      </g>
     </g>
     <g id="text_8">
      <!-- 2014-08-10 07:00 -->
      <g transform="translate(323.020972 406.94) rotate(-90) scale(0.08 -0.08)">
       <defs>
        <path id="DejaVuSans-37" d="M 525 4666 
L 3525 4666 
L 3525 4397 
L 1831 0 
L 1172 0 
L 2766 4134 
L 525 4134 
L 525 4666 
z
" transform="scale(0.015625)"/>
       </defs>
       <use xlink:href="#DejaVuSans-32"/>
       <use xlink:href="#DejaVuSans-30" transform="translate(63.623047 0)"/>
       <use xlink:href="#DejaVuSans-31" transform="translate(127.246094 0)"/>
       <use xlink:href="#DejaVuSans-34" transform="translate(190.869141 0)"/>
       <use xlink:href="#DejaVuSans-2d" transform="translate(254.492188 0)"/>
       <use xlink:href="#DejaVuSans-30" transform="translate(290.576172 0)"/>
       <use xlink:href="#DejaVuSans-38" transform="translate(354.199219 0)"/>
       <use xlink:href="#DejaVuSans-2d" transform="translate(417.822266 0)"/>
       <use xlink:href="#DejaVuSans-31" transform="translate(453.90625 0)"/>
       <use xlink:href="#DejaVuSans-30" transform="translate(517.529297 0)"/>
       <use xlink:href="#DejaVuSans-20" transform="translate(581.152344 0)"/>
       <use xlink:href="#DejaVuSans-30" transform="translate(612.939453 0)"/>
       <use xlink:href="#DejaVuSans-37" transform="translate(676.5625 0)"/>
       <use xlink:href="#DejaVuSans-3a" transform="translate(740.185547 0)"/>
       <use xlink:href="#DejaVuSans-30" transform="translate(773.876953 0)"/>
       <use xlink:href="#DejaVuSans-30" transform="translate(837.5 0)"/>
      </g>
     </g>
    </g>
    <g id="xtick_9">
     <g id="line2d_9">
      <g>
       <use xlink:href="#mdf4f8563ec" x="362.002658" y="363.895" style="stroke: #000000; stroke-width: 0.8"/>
      </g>
     </g>
     <g id="text_9">
      <!-- 2014-08-10 08:00 -->
      <g transform="translate(360.338908 406.94) rotate(-90) scale(0.08 -0.08)">
       <use xlink:href="#DejaVuSans-32"/>
       <use xlink:href="#DejaVuSans-30" transform="translate(63.623047 0)"/>
       <use xlink:href="#DejaVuSans-31" transform="translate(127.246094 0)"/>
       <use xlink:href="#DejaVuSans-34" transform="translate(190.869141 0)"/>
       <use xlink:href="#DejaVuSans-2d" transform="translate(254.492188 0)"/>
       <use xlink:href="#DejaVuSans-30" transform="translate(290.576172 0)"/>
       <use xlink:href="#DejaVuSans-38" transform="translate(354.199219 0)"/>
       <use xlink:href="#DejaVuSans-2d" transform="translate(417.822266 0)"/>
       <use xlink:href="#DejaVuSans-31" transform="translate(453.90625 0)"/>
       <use xlink:href="#DejaVuSans-30" transform="translate(517.529297 0)"/>
       <use xlink:href="#DejaVuSans-20" transform="translate(581.152344 0)"/>
       <use xlink:href="#DejaVuSans-30" transform="translate(612.939453 0)"/>
       <use xlink:href="#DejaVuSans-38" transform="translate(676.5625 0)"/>
       <use xlink:href="#DejaVuSans-3a" transform="translate(740.185547 0)"/>
       <use xlink:href="#DejaVuSans-30" transform="translate(773.876953 0)"/>
       <use xlink:href="#DejaVuSans-30" transform="translate(837.5 0)"/>
      </g>
     </g>
    </g>
    <g id="xtick_10">
     <g id="line2d_10">
      <g>
       <use xlink:href="#mdf4f8563ec" x="399.320595" y="363.895" style="stroke: #000000; stroke-width: 0.8"/>
      </g>
     </g>
     <g id="text_10">
      <!-- 2014-08-10 09:00 -->
      <g transform="translate(397.656845 406.94) rotate(-90) scale(0.08 -0.08)">
       <defs>
        <path id="DejaVuSans-39" d="M 703 97 
L 703 672 
Q 941 559 1184 500 
Q 1428 441 1663 441 
Q 2288 441 2617 861 
Q 2947 1281 2994 2138 
Q 2813 1869 2534 1725 
Q 2256 1581 1919 1581 
Q 1219 1581 811 2004 
Q 403 2428 403 3163 
Q 403 3881 828 4315 
Q 1253 4750 1959 4750 
Q 2769 4750 3195 4129 
Q 3622 3509 3622 2328 
Q 3622 1225 3098 567 
Q 2575 -91 1691 -91 
Q 1453 -91 1209 -44 
Q 966 3 703 97 
z
M 1959 2075 
Q 2384 2075 2632 2365 
Q 2881 2656 2881 3163 
Q 2881 3666 2632 3958 
Q 2384 4250 1959 4250 
Q 1534 4250 1286 3958 
Q 1038 3666 1038 3163 
Q 1038 2656 1286 2365 
Q 1534 2075 1959 2075 
z
" transform="scale(0.015625)"/>
       </defs>
       <use xlink:href="#DejaVuSans-32"/>
       <use xlink:href="#DejaVuSans-30" transform="translate(63.623047 0)"/>
       <use xlink:href="#DejaVuSans-31" transform="translate(127.246094 0)"/>
       <use xlink:href="#DejaVuSans-34" transform="translate(190.869141 0)"/>
       <use xlink:href="#DejaVuSans-2d" transform="translate(254.492188 0)"/>
       <use xlink:href="#DejaVuSans-30" transform="translate(290.576172 0)"/>
       <use xlink:href="#DejaVuSans-38" transform="translate(354.199219 0)"/>
       <use xlink:href="#DejaVuSans-2d" transform="translate(417.822266 0)"/>
       <use xlink:href="#DejaVuSans-31" transform="translate(453.90625 0)"/>
       <use xlink:href="#DejaVuSans-30" transform="translate(517.529297 0)"/>
       <use xlink:href="#DejaVuSans-20" transform="translate(581.152344 0)"/>
       <use xlink:href="#DejaVuSans-30" transform="translate(612.939453 0)"/>
       <use xlink:href="#DejaVuSans-39" transform="translate(676.5625 0)"/>
       <use xlink:href="#DejaVuSans-3a" transform="translate(740.185547 0)"/>
       <use xlink:href="#DejaVuSans-30" transform="translate(773.876953 0)"/>
       <use xlink:href="#DejaVuSans-30" transform="translate(837.5 0)"/>
      </g>
     </g>
    </g>
    <g id="xtick_11">
     <g id="line2d_11">
      <g>
       <use xlink:href="#mdf4f8563ec" x="436.638532" y="363.895" style="stroke: #000000; stroke-width: 0.8"/>
      </g>
     </g>
     <g id="text_11">
      <!-- 2014-08-10 10:00 -->
      <g transform="translate(434.974782 406.94) rotate(-90) scale(0.08 -0.08)">
       <use xlink:href="#DejaVuSans-32"/>
       <use xlink:href="#DejaVuSans-30" transform="translate(63.623047 0)"/>
       <use xlink:href="#DejaVuSans-31" transform="translate(127.246094 0)"/>
       <use xlink:href="#DejaVuSans-34" transform="translate(190.869141 0)"/>
       <use xlink:href="#DejaVuSans-2d" transform="translate(254.492188 0)"/>
       <use xlink:href="#DejaVuSans-30" transform="translate(290.576172 0)"/>
       <use xlink:href="#DejaVuSans-38" transform="translate(354.199219 0)"/>
       <use xlink:href="#DejaVuSans-2d" transform="translate(417.822266 0)"/>
       <use xlink:href="#DejaVuSans-31" transform="translate(453.90625 0)"/>
       <use xlink:href="#DejaVuSans-30" transform="translate(517.529297 0)"/>
       <use xlink:href="#DejaVuSans-20" transform="translate(581.152344 0)"/>
       <use xlink:href="#DejaVuSans-31" transform="translate(612.939453 0)"/>
       <use xlink:href="#DejaVuSans-30" transform="translate(676.5625 0)"/>
       <use xlink:href="#DejaVuSans-3a" transform="translate(740.185547 0)"/>
       <use xlink:href="#DejaVuSans-30" transform="translate(773.876953 0)"/>
       <use xlink:href="#DejaVuSans-30" transform="translate(837.5 0)"/>
      </g>
     </g>
    </g>
    <g id="xtick_12">
     <g id="line2d_12">
      <g>
       <use xlink:href="#mdf4f8563ec" x="473.956468" y="363.895" style="stroke: #000000; stroke-width: 0.8"/>
      </g>
     </g>
     <g id="text_12">
      <!-- 2014-08-10 11:00 -->
      <g transform="translate(472.292718 406.94) rotate(-90) scale(0.08 -0.08)">
       <use xlink:href="#DejaVuSans-32"/>
       <use xlink:href="#DejaVuSans-30" transform="translate(63.623047 0)"/>
       <use xlink:href="#DejaVuSans-31" transform="translate(127.246094 0)"/>
       <use xlink:href="#DejaVuSans-34" transform="translate(190.869141 0)"/>
       <use xlink:href="#DejaVuSans-2d" transform="translate(254.492188 0)"/>
       <use xlink:href="#DejaVuSans-30" transform="translate(290.576172 0)"/>
       <use xlink:href="#DejaVuSans-38" transform="translate(354.199219 0)"/>
       <use xlink:href="#DejaVuSans-2d" transform="translate(417.822266 0)"/>
       <use xlink:href="#DejaVuSans-31" transform="translate(453.90625 0)"/>
       <use xlink:href="#DejaVuSans-30" transform="translate(517.529297 0)"/>
       <use xlink:href="#DejaVuSans-20" transform="translate(581.152344 0)"/>
       <use xlink:href="#DejaVuSans-31" transform="translate(612.939453 0)"/>
       <use xlink:href="#DejaVuSans-31" transform="translate(676.5625 0)"/>
       <use xlink:href="#DejaVuSans-3a" transform="translate(740.185547 0)"/>
       <use xlink:href="#DejaVuSans-30" transform="translate(773.876953 0)"/>
       <use xlink:href="#DejaVuSans-30" transform="translate(837.5 0)"/>
      </g>
     </g>
    </g>
    <g id="xtick_13">
     <g id="line2d_13">
      <g>
       <use xlink:href="#mdf4f8563ec" x="511.274405" y="363.895" style="stroke: #000000; stroke-width: 0.8"/>
      </g>
     </g>
     <g id="text_13">
      <!-- 2014-08-10 12:00 -->
      <g transform="translate(509.610655 406.94) rotate(-90) scale(0.08 -0.08)">
       <use xlink:href="#DejaVuSans-32"/>
       <use xlink:href="#DejaVuSans-30" transform="translate(63.623047 0)"/>
       <use xlink:href="#DejaVuSans-31" transform="translate(127.246094 0)"/>
       <use xlink:href="#DejaVuSans-34" transform="translate(190.869141 0)"/>
       <use xlink:href="#DejaVuSans-2d" transform="translate(254.492188 0)"/>
       <use xlink:href="#DejaVuSans-30" transform="translate(290.576172 0)"/>
       <use xlink:href="#DejaVuSans-38" transform="translate(354.199219 0)"/>
       <use xlink:href="#DejaVuSans-2d" transform="translate(417.822266 0)"/>
       <use xlink:href="#DejaVuSans-31" transform="translate(453.90625 0)"/>
       <use xlink:href="#DejaVuSans-30" transform="translate(517.529297 0)"/>
       <use xlink:href="#DejaVuSans-20" transform="translate(581.152344 0)"/>
       <use xlink:href="#DejaVuSans-31" transform="translate(612.939453 0)"/>
       <use xlink:href="#DejaVuSans-32" transform="translate(676.5625 0)"/>
       <use xlink:href="#DejaVuSans-3a" transform="translate(740.185547 0)"/>
       <use xlink:href="#DejaVuSans-30" transform="translate(773.876953 0)"/>
       <use xlink:href="#DejaVuSans-30" transform="translate(837.5 0)"/>
      </g>
     </g>
    </g>
    <g id="xtick_14">
     <g id="line2d_14">
      <g>
       <use xlink:href="#mdf4f8563ec" x="548.592342" y="363.895" style="stroke: #000000; stroke-width: 0.8"/>
      </g>
     </g>
     <g id="text_14">
      <!-- 2014-08-10 13:00 -->
      <g transform="translate(546.928592 406.94) rotate(-90) scale(0.08 -0.08)">
       <use xlink:href="#DejaVuSans-32"/>
       <use xlink:href="#DejaVuSans-30" transform="translate(63.623047 0)"/>
       <use xlink:href="#DejaVuSans-31" transform="translate(127.246094 0)"/>
       <use xlink:href="#DejaVuSans-34" transform="translate(190.869141 0)"/>
       <use xlink:href="#DejaVuSans-2d" transform="translate(254.492188 0)"/>
       <use xlink:href="#DejaVuSans-30" transform="translate(290.576172 0)"/>
       <use xlink:href="#DejaVuSans-38" transform="translate(354.199219 0)"/>
       <use xlink:href="#DejaVuSans-2d" transform="translate(417.822266 0)"/>
       <use xlink:href="#DejaVuSans-31" transform="translate(453.90625 0)"/>
       <use xlink:href="#DejaVuSans-30" transform="translate(517.529297 0)"/>
       <use xlink:href="#DejaVuSans-20" transform="translate(581.152344 0)"/>
       <use xlink:href="#DejaVuSans-31" transform="translate(612.939453 0)"/>
       <use xlink:href="#DejaVuSans-33" transform="translate(676.5625 0)"/>
       <use xlink:href="#DejaVuSans-3a" transform="translate(740.185547 0)"/>
       <use xlink:href="#DejaVuSans-30" transform="translate(773.876953 0)"/>
       <use xlink:href="#DejaVuSans-30" transform="translate(837.5 0)"/>
      </g>
     </g>
    </g>
    <g id="xtick_15">
     <g id="line2d_15">
      <g>
       <use xlink:href="#mdf4f8563ec" x="585.910278" y="363.895" style="stroke: #000000; stroke-width: 0.8"/>
      </g>
     </g>
     <g id="text_15">
      <!-- 2014-08-10 14:00 -->
      <g transform="translate(584.246528 406.94) rotate(-90) scale(0.08 -0.08)">
       <use xlink:href="#DejaVuSans-32"/>
       <use xlink:href="#DejaVuSans-30" transform="translate(63.623047 0)"/>
       <use xlink:href="#DejaVuSans-31" transform="translate(127.246094 0)"/>
       <use xlink:href="#DejaVuSans-34" transform="translate(190.869141 0)"/>
       <use xlink:href="#DejaVuSans-2d" transform="translate(254.492188 0)"/>
       <use xlink:href="#DejaVuSans-30" transform="translate(290.576172 0)"/>
       <use xlink:href="#DejaVuSans-38" transform="translate(354.199219 0)"/>
       <use xlink:href="#DejaVuSans-2d" transform="translate(417.822266 0)"/>
       <use xlink:href="#DejaVuSans-31" transform="translate(453.90625 0)"/>
       <use xlink:href="#DejaVuSans-30" transform="translate(517.529297 0)"/>
       <use xlink:href="#DejaVuSans-20" transform="translate(581.152344 0)"/>
       <use xlink:href="#DejaVuSans-31" transform="translate(612.939453 0)"/>
       <use xlink:href="#DejaVuSans-34" transform="translate(676.5625 0)"/>
       <use xlink:href="#DejaVuSans-3a" transform="translate(740.185547 0)"/>
       <use xlink:href="#DejaVuSans-30" transform="translate(773.876953 0)"/>
       <use xlink:href="#DejaVuSans-30" transform="translate(837.5 0)"/>
      </g>
     </g>
    </g>
    <g id="xtick_16">
     <g id="line2d_16">
      <g>
       <use xlink:href="#mdf4f8563ec" x="623.228215" y="363.895" style="stroke: #000000; stroke-width: 0.8"/>
      </g>
     </g>
     <g id="text_16">
      <!-- 2014-08-10 15:00 -->
      <g transform="translate(621.564465 406.94) rotate(-90) scale(0.08 -0.08)">
       <use xlink:href="#DejaVuSans-32"/>
       <use xlink:href="#DejaVuSans-30" transform="translate(63.623047 0)"/>
       <use xlink:href="#DejaVuSans-31" transform="translate(127.246094 0)"/>
       <use xlink:href="#DejaVuSans-34" transform="translate(190.869141 0)"/>
       <use xlink:href="#DejaVuSans-2d" transform="translate(254.492188 0)"/>
       <use xlink:href="#DejaVuSans-30" transform="translate(290.576172 0)"/>
       <use xlink:href="#DejaVuSans-38" transform="translate(354.199219 0)"/>
       <use xlink:href="#DejaVuSans-2d" transform="translate(417.822266 0)"/>
       <use xlink:href="#DejaVuSans-31" transform="translate(453.90625 0)"/>
       <use xlink:href="#DejaVuSans-30" transform="translate(517.529297 0)"/>
       <use xlink:href="#DejaVuSans-20" transform="translate(581.152344 0)"/>
       <use xlink:href="#DejaVuSans-31" transform="translate(612.939453 0)"/>
       <use xlink:href="#DejaVuSans-35" transform="translate(676.5625 0)"/>
       <use xlink:href="#DejaVuSans-3a" transform="translate(740.185547 0)"/>
       <use xlink:href="#DejaVuSans-30" transform="translate(773.876953 0)"/>
       <use xlink:href="#DejaVuSans-30" transform="translate(837.5 0)"/>
      </g>
     </g>
    </g>
    <g id="xtick_17">
     <g id="line2d_17">
      <g>
       <use xlink:href="#mdf4f8563ec" x="660.546152" y="363.895" style="stroke: #000000; stroke-width: 0.8"/>
      </g>
     </g>
     <g id="text_17">
      <!-- 2014-08-10 16:00 -->
      <g transform="translate(658.882402 406.94) rotate(-90) scale(0.08 -0.08)">
       <use xlink:href="#DejaVuSans-32"/>
       <use xlink:href="#DejaVuSans-30" transform="translate(63.623047 0)"/>
       <use xlink:href="#DejaVuSans-31" transform="translate(127.246094 0)"/>
       <use xlink:href="#DejaVuSans-34" transform="translate(190.869141 0)"/>
       <use xlink:href="#DejaVuSans-2d" transform="translate(254.492188 0)"/>
       <use xlink:href="#DejaVuSans-30" transform="translate(290.576172 0)"/>
       <use xlink:href="#DejaVuSans-38" transform="translate(354.199219 0)"/>
       <use xlink:href="#DejaVuSans-2d" transform="translate(417.822266 0)"/>
       <use xlink:href="#DejaVuSans-31" transform="translate(453.90625 0)"/>
       <use xlink:href="#DejaVuSans-30" transform="translate(517.529297 0)"/>
       <use xlink:href="#DejaVuSans-20" transform="translate(581.152344 0)"/>
       <use xlink:href="#DejaVuSans-31" transform="translate(612.939453 0)"/>
       <use xlink:href="#DejaVuSans-36" transform="translate(676.5625 0)"/>
       <use xlink:href="#DejaVuSans-3a" transform="translate(740.185547 0)"/>
       <use xlink:href="#DejaVuSans-30" transform="translate(773.876953 0)"/>
       <use xlink:href="#DejaVuSans-30" transform="translate(837.5 0)"/>
      </g>
     </g>
    </g>
    <g id="xtick_18">
     <g id="line2d_18">
      <g>
       <use xlink:href="#mdf4f8563ec" x="697.864089" y="363.895" style="stroke: #000000; stroke-width: 0.8"/>
      </g>
     </g>
     <g id="text_18">
      <!-- 2014-08-10 17:00 -->
      <g transform="translate(696.200339 406.94) rotate(-90) scale(0.08 -0.08)">
       <use xlink:href="#DejaVuSans-32"/>
       <use xlink:href="#DejaVuSans-30" transform="translate(63.623047 0)"/>
       <use xlink:href="#DejaVuSans-31" transform="translate(127.246094 0)"/>
       <use xlink:href="#DejaVuSans-34" transform="translate(190.869141 0)"/>
       <use xlink:href="#DejaVuSans-2d" transform="translate(254.492188 0)"/>
       <use xlink:href="#DejaVuSans-30" transform="translate(290.576172 0)"/>
       <use xlink:href="#DejaVuSans-38" transform="translate(354.199219 0)"/>
       <use xlink:href="#DejaVuSans-2d" transform="translate(417.822266 0)"/>
       <use xlink:href="#DejaVuSans-31" transform="translate(453.90625 0)"/>
       <use xlink:href="#DejaVuSans-30" transform="translate(517.529297 0)"/>
       <use xlink:href="#DejaVuSans-20" transform="translate(581.152344 0)"/>
       <use xlink:href="#DejaVuSans-31" transform="translate(612.939453 0)"/>
       <use xlink:href="#DejaVuSans-37" transform="translate(676.5625 0)"/>
       <use xlink:href="#DejaVuSans-3a" transform="translate(740.185547 0)"/>
       <use xlink:href="#DejaVuSans-30" transform="translate(773.876953 0)"/>
       <use xlink:href="#DejaVuSans-30" transform="translate(837.5 0)"/>
      </g>
     </g>
    </g>
    <g id="xtick_19">
     <g id="line2d_19">
      <g>
       <use xlink:href="#mdf4f8563ec" x="735.182025" y="363.895" style="stroke: #000000; stroke-width: 0.8"/>
      </g>
     </g>
     <g id="text_19">
      <!-- 2014-08-10 18:00 -->
      <g transform="translate(733.518275 406.94) rotate(-90) scale(0.08 -0.08)">
       <use xlink:href="#DejaVuSans-32"/>
       <use xlink:href="#DejaVuSans-30" transform="translate(63.623047 0)"/>
       <use xlink:href="#DejaVuSans-31" transform="translate(127.246094 0)"/>
       <use xlink:href="#DejaVuSans-34" transform="translate(190.869141 0)"/>
       <use xlink:href="#DejaVuSans-2d" transform="translate(254.492188 0)"/>
       <use xlink:href="#DejaVuSans-30" transform="translate(290.576172 0)"/>
       <use xlink:href="#DejaVuSans-38" transform="translate(354.199219 0)"/>
       <use xlink:href="#DejaVuSans-2d" transform="translate(417.822266 0)"/>
       <use xlink:href="#DejaVuSans-31" transform="translate(453.90625 0)"/>
       <use xlink:href="#DejaVuSans-30" transform="translate(517.529297 0)"/>
       <use xlink:href="#DejaVuSans-20" transform="translate(581.152344 0)"/>
       <use xlink:href="#DejaVuSans-31" transform="translate(612.939453 0)"/>
       <use xlink:href="#DejaVuSans-38" transform="translate(676.5625 0)"/>
       <use xlink:href="#DejaVuSans-3a" transform="translate(740.185547 0)"/>
       <use xlink:href="#DejaVuSans-30" transform="translate(773.876953 0)"/>
       <use xlink:href="#DejaVuSans-30" transform="translate(837.5 0)"/>
      </g>
     </g>
    </g>
    <g id="xtick_20">
     <g id="line2d_20">
      <g>
       <use xlink:href="#mdf4f8563ec" x="772.499962" y="363.895" style="stroke: #000000; stroke-width: 0.8"/>
      </g>
     </g>
     <g id="text_20">
      <!-- 2014-08-10 19:00 -->
      <g transform="translate(770.836212 406.94) rotate(-90) scale(0.08 -0.08)">
       <use xlink:href="#DejaVuSans-32"/>
       <use xlink:href="#DejaVuSans-30" transform="translate(63.623047 0)"/>
       <use xlink:href="#DejaVuSans-31" transform="translate(127.246094 0)"/>
       <use xlink:href="#DejaVuSans-34" transform="translate(190.869141 0)"/>
       <use xlink:href="#DejaVuSans-2d" transform="translate(254.492188 0)"/>
       <use xlink:href="#DejaVuSans-30" transform="translate(290.576172 0)"/>
       <use xlink:href="#DejaVuSans-38" transform="translate(354.199219 0)"/>
       <use xlink:href="#DejaVuSans-2d" transform="translate(417.822266 0)"/>
       <use xlink:href="#DejaVuSans-31" transform="translate(453.90625 0)"/>
       <use xlink:href="#DejaVuSans-30" transform="translate(517.529297 0)"/>
       <use xlink:href="#DejaVuSans-20" transform="translate(581.152344 0)"/>
       <use xlink:href="#DejaVuSans-31" transform="translate(612.939453 0)"/>
       <use xlink:href="#DejaVuSans-39" transform="translate(676.5625 0)"/>
       <use xlink:href="#DejaVuSans-3a" transform="translate(740.185547 0)"/>
       <use xlink:href="#DejaVuSans-30" transform="translate(773.876953 0)"/>
       <use xlink:href="#DejaVuSans-30" transform="translate(837.5 0)"/>
      </g>
     </g>
    </g>
    <g id="xtick_21">
     <g id="line2d_21">
      <g>
       <use xlink:href="#mdf4f8563ec" x="809.817899" y="363.895" style="stroke: #000000; stroke-width: 0.8"/>
      </g>
     </g>
     <g id="text_21">
      <!-- 2014-08-10 20:00 -->
      <g transform="translate(808.154149 406.94) rotate(-90) scale(0.08 -0.08)">
       <use xlink:href="#DejaVuSans-32"/>
       <use xlink:href="#DejaVuSans-30" transform="translate(63.623047 0)"/>
       <use xlink:href="#DejaVuSans-31" transform="translate(127.246094 0)"/>
       <use xlink:href="#DejaVuSans-34" transform="translate(190.869141 0)"/>
       <use xlink:href="#DejaVuSans-2d" transform="translate(254.492188 0)"/>
       <use xlink:href="#DejaVuSans-30" transform="translate(290.576172 0)"/>
       <use xlink:href="#DejaVuSans-38" transform="translate(354.199219 0)"/>
       <use xlink:href="#DejaVuSans-2d" transform="translate(417.822266 0)"/>
       <use xlink:href="#DejaVuSans-31" transform="translate(453.90625 0)"/>
       <use xlink:href="#DejaVuSans-30" transform="translate(517.529297 0)"/>
       <use xlink:href="#DejaVuSans-20" transform="translate(581.152344 0)"/>
       <use xlink:href="#DejaVuSans-32" transform="translate(612.939453 0)"/>
       <use xlink:href="#DejaVuSans-30" transform="translate(676.5625 0)"/>
       <use xlink:href="#DejaVuSans-3a" transform="translate(740.185547 0)"/>
       <use xlink:href="#DejaVuSans-30" transform="translate(773.876953 0)"/>
       <use xlink:href="#DejaVuSans-30" transform="translate(837.5 0)"/>
      </g>
     </g>
    </g>
    <g id="xtick_22">
     <g id="line2d_22">
      <g>
       <use xlink:href="#mdf4f8563ec" x="847.135835" y="363.895" style="stroke: #000000; stroke-width: 0.8"/>
      </g>
     </g>
     <g id="text_22">
      <!-- 2014-08-10 21:00 -->
      <g transform="translate(845.472085 406.94) rotate(-90) scale(0.08 -0.08)">
       <use xlink:href="#DejaVuSans-32"/>
       <use xlink:href="#DejaVuSans-30" transform="translate(63.623047 0)"/>
       <use xlink:href="#DejaVuSans-31" transform="translate(127.246094 0)"/>
       <use xlink:href="#DejaVuSans-34" transform="translate(190.869141 0)"/>
       <use xlink:href="#DejaVuSans-2d" transform="translate(254.492188 0)"/>
       <use xlink:href="#DejaVuSans-30" transform="translate(290.576172 0)"/>
       <use xlink:href="#DejaVuSans-38" transform="translate(354.199219 0)"/>
       <use xlink:href="#DejaVuSans-2d" transform="translate(417.822266 0)"/>
       <use xlink:href="#DejaVuSans-31" transform="translate(453.90625 0)"/>
       <use xlink:href="#DejaVuSans-30" transform="translate(517.529297 0)"/>
       <use xlink:href="#DejaVuSans-20" transform="translate(581.152344 0)"/>
       <use xlink:href="#DejaVuSans-32" transform="translate(612.939453 0)"/>
       <use xlink:href="#DejaVuSans-31" transform="translate(676.5625 0)"/>
       <use xlink:href="#DejaVuSans-3a" transform="translate(740.185547 0)"/>
       <use xlink:href="#DejaVuSans-30" transform="translate(773.876953 0)"/>
       <use xlink:href="#DejaVuSans-30" transform="translate(837.5 0)"/>
      </g>
     </g>
    </g>
    <g id="text_23">
     <!-- Hora -->
     <g transform="translate(443.358438 418.538437) scale(0.1 -0.1)">
      <defs>
       <path id="DejaVuSans-48" d="M 628 4666 
L 1259 4666 
L 1259 2753 
L 3553 2753 
L 3553 4666 
L 4184 4666 
L 4184 0 
L 3553 0 
L 3553 2222 
L 1259 2222 
L 1259 0 
L 628 0 
L 628 4666 
z
" transform="scale(0.015625)"/>
       <path id="DejaVuSans-6f" d="M 1959 3097 
Q 1497 3097 1228 2736 
Q 959 2375 959 1747 
Q 959 1119 1226 758 
Q 1494 397 1959 397 
Q 2419 397 2687 759 
Q 2956 1122 2956 1747 
Q 2956 2369 2687 2733 
Q 2419 3097 1959 3097 
z
M 1959 3584 
Q 2709 3584 3137 3096 
Q 3566 2609 3566 1747 
Q 3566 888 3137 398 
Q 2709 -91 1959 -91 
Q 1206 -91 779 398 
Q 353 888 353 1747 
Q 353 2609 779 3096 
Q 1206 3584 1959 3584 
z
" transform="scale(0.015625)"/>
       <path id="DejaVuSans-72" d="M 2631 2963 
Q 2534 3019 2420 3045 
Q 2306 3072 2169 3072 
Q 1681 3072 1420 2755 
Q 1159 2438 1159 1844 
L 1159 0 
L 581 0 
L 581 3500 
L 1159 3500 
L 1159 2956 
Q 1341 3275 1631 3429 
Q 1922 3584 2338 3584 
Q 2397 3584 2469 3576 
Q 2541 3569 2628 3553 
L 2631 2963 
z
" transform="scale(0.015625)"/>
       <path id="DejaVuSans-61" d="M 2194 1759 
Q 1497 1759 1228 1600 
Q 959 1441 959 1056 
Q 959 750 1161 570 
Q 1363 391 1709 391 
Q 2188 391 2477 730 
Q 2766 1069 2766 1631 
L 2766 1759 
L 2194 1759 
z
M 3341 1997 
L 3341 0 
L 2766 0 
L 2766 531 
Q 2569 213 2275 61 
Q 1981 -91 1556 -91 
Q 1019 -91 701 211 
Q 384 513 384 1019 
Q 384 1609 779 1909 
Q 1175 2209 1959 2209 
L 2766 2209 
L 2766 2266 
Q 2766 2663 2505 2880 
Q 2244 3097 1772 3097 
Q 1472 3097 1187 3025 
Q 903 2953 641 2809 
L 641 3341 
Q 956 3463 1253 3523 
Q 1550 3584 1831 3584 
Q 2591 3584 2966 3190 
Q 3341 2797 3341 1997 
z
" transform="scale(0.015625)"/>
      </defs>
      <use xlink:href="#DejaVuSans-48"/>
      <use xlink:href="#DejaVuSans-6f" transform="translate(75.195312 0)"/>
      <use xlink:href="#DejaVuSans-72" transform="translate(136.376953 0)"/>
      <use xlink:href="#DejaVuSans-61" transform="translate(177.490234 0)"/>
     </g>
    </g>
   </g>
   <g id="matplotlib.axis_2">
    <g id="ytick_1">
     <g id="line2d_23">
      <path d="M 57.395 363.895 
L 853.2 363.895 
" clip-path="url(#pc931d52ced)" style="fill: none; stroke-dasharray: 2.96,1.28; stroke-dashoffset: 0; stroke: #b0b0b0; stroke-opacity: 0.7; stroke-width: 0.8"/>
     </g>
     <g id="line2d_24">
      <defs>
       <path id="m5a833ce43e" d="M 0 0 
L -3.5 0 
" style="stroke: #000000; stroke-width: 0.8"/>
      </defs>
      <g>
       <use xlink:href="#m5a833ce43e" x="57.395" y="363.895" style="stroke: #000000; stroke-width: 0.8"/>
      </g>
     </g>
     <g id="text_24">
      <!-- 0 -->
      <g transform="translate(44.0325 367.694219) scale(0.1 -0.1)">
       <use xlink:href="#DejaVuSans-30"/>
      </g>
     </g>
    </g>
    <g id="ytick_2">
     <g id="line2d_25">
      <path d="M 57.395 325.779353 
L 853.2 325.779353 
" clip-path="url(#pc931d52ced)" style="fill: none; stroke-dasharray: 2.96,1.28; stroke-dashoffset: 0; stroke: #b0b0b0; stroke-opacity: 0.7; stroke-width: 0.8"/>
     </g>
     <g id="line2d_26">
      <g>
       <use xlink:href="#m5a833ce43e" x="57.395" y="325.779353" style="stroke: #000000; stroke-width: 0.8"/>
      </g>
     </g>
     <g id="text_25">
      <!-- 200 -->
      <g transform="translate(31.3075 329.578572) scale(0.1 -0.1)">
       <use xlink:href="#DejaVuSans-32"/>
       <use xlink:href="#DejaVuSans-30" transform="translate(63.623047 0)"/>
       <use xlink:href="#DejaVuSans-30" transform="translate(127.246094 0)"/>
      </g>
     </g>
    </g>
    <g id="ytick_3">
     <g id="line2d_27">
      <path d="M 57.395 287.663706 
L 853.2 287.663706 
" clip-path="url(#pc931d52ced)" style="fill: none; stroke-dasharray: 2.96,1.28; stroke-dashoffset: 0; stroke: #b0b0b0; stroke-opacity: 0.7; stroke-width: 0.8"/>
     </g>
     <g id="line2d_28">
      <g>
       <use xlink:href="#m5a833ce43e" x="57.395" y="287.663706" style="stroke: #000000; stroke-width: 0.8"/>
      </g>
     </g>
     <g id="text_26">
      <!-- 400 -->
      <g transform="translate(31.3075 291.462925) scale(0.1 -0.1)">
       <use xlink:href="#DejaVuSans-34"/>
       <use xlink:href="#DejaVuSans-30" transform="translate(63.623047 0)"/>
       <use xlink:href="#DejaVuSans-30" transform="translate(127.246094 0)"/>
      </g>
     </g>
    </g>
    <g id="ytick_4">
     <g id="line2d_29">
      <path d="M 57.395 249.548059 
L 853.2 249.548059 
" clip-path="url(#pc931d52ced)" style="fill: none; stroke-dasharray: 2.96,1.28; stroke-dashoffset: 0; stroke: #b0b0b0; stroke-opacity: 0.7; stroke-width: 0.8"/>
     </g>
     <g id="line2d_30">
      <g>
       <use xlink:href="#m5a833ce43e" x="57.395" y="249.548059" style="stroke: #000000; stroke-width: 0.8"/>
      </g>
     </g>
     <g id="text_27">
      <!-- 600 -->
      <g transform="translate(31.3075 253.347278) scale(0.1 -0.1)">
       <use xlink:href="#DejaVuSans-36"/>
       <use xlink:href="#DejaVuSans-30" transform="translate(63.623047 0)"/>
       <use xlink:href="#DejaVuSans-30" transform="translate(127.246094 0)"/>
      </g>
     </g>
    </g>
    <g id="ytick_5">
     <g id="line2d_31">
      <path d="M 57.395 211.432412 
L 853.2 211.432412 
" clip-path="url(#pc931d52ced)" style="fill: none; stroke-dasharray: 2.96,1.28; stroke-dashoffset: 0; stroke: #b0b0b0; stroke-opacity: 0.7; stroke-width: 0.8"/>
     </g>
     <g id="line2d_32">
      <g>
       <use xlink:href="#m5a833ce43e" x="57.395" y="211.432412" style="stroke: #000000; stroke-width: 0.8"/>
      </g>
     </g>
     <g id="text_28">
      <!-- 800 -->
      <g transform="translate(31.3075 215.231631) scale(0.1 -0.1)">
       <use xlink:href="#DejaVuSans-38"/>
       <use xlink:href="#DejaVuSans-30" transform="translate(63.623047 0)"/>
       <use xlink:href="#DejaVuSans-30" transform="translate(127.246094 0)"/>
      </g>
     </g>
    </g>
    <g id="ytick_6">
     <g id="line2d_33">
      <path d="M 57.395 173.316765 
L 853.2 173.316765 
" clip-path="url(#pc931d52ced)" style="fill: none; stroke-dasharray: 2.96,1.28; stroke-dashoffset: 0; stroke: #b0b0b0; stroke-opacity: 0.7; stroke-width: 0.8"/>
     </g>
     <g id="line2d_34">
      <g>
       <use xlink:href="#m5a833ce43e" x="57.395" y="173.316765" style="stroke: #000000; stroke-width: 0.8"/>
      </g>
     </g>
     <g id="text_29">
      <!-- 1000 -->
      <g transform="translate(24.945 177.115983) scale(0.1 -0.1)">
       <use xlink:href="#DejaVuSans-31"/>
       <use xlink:href="#DejaVuSans-30" transform="translate(63.623047 0)"/>
       <use xlink:href="#DejaVuSans-30" transform="translate(127.246094 0)"/>
       <use xlink:href="#DejaVuSans-30" transform="translate(190.869141 0)"/>
      </g>
     </g>
    </g>
    <g id="ytick_7">
     <g id="line2d_35">
      <path d="M 57.395 135.201118 
L 853.2 135.201118 
" clip-path="url(#pc931d52ced)" style="fill: none; stroke-dasharray: 2.96,1.28; stroke-dashoffset: 0; stroke: #b0b0b0; stroke-opacity: 0.7; stroke-width: 0.8"/>
     </g>
     <g id="line2d_36">
      <g>
       <use xlink:href="#m5a833ce43e" x="57.395" y="135.201118" style="stroke: #000000; stroke-width: 0.8"/>
      </g>
     </g>
     <g id="text_30">
      <!-- 1200 -->
      <g transform="translate(24.945 139.000336) scale(0.1 -0.1)">
       <use xlink:href="#DejaVuSans-31"/>
       <use xlink:href="#DejaVuSans-32" transform="translate(63.623047 0)"/>
       <use xlink:href="#DejaVuSans-30" transform="translate(127.246094 0)"/>
       <use xlink:href="#DejaVuSans-30" transform="translate(190.869141 0)"/>
      </g>
     </g>
    </g>
    <g id="ytick_8">
     <g id="line2d_37">
      <path d="M 57.395 97.085471 
L 853.2 97.085471 
" clip-path="url(#pc931d52ced)" style="fill: none; stroke-dasharray: 2.96,1.28; stroke-dashoffset: 0; stroke: #b0b0b0; stroke-opacity: 0.7; stroke-width: 0.8"/>
     </g>
     <g id="line2d_38">
      <g>
       <use xlink:href="#m5a833ce43e" x="57.395" y="97.085471" style="stroke: #000000; stroke-width: 0.8"/>
      </g>
     </g>
     <g id="text_31">
      <!-- 1400 -->
      <g transform="translate(24.945 100.884689) scale(0.1 -0.1)">
       <use xlink:href="#DejaVuSans-31"/>
       <use xlink:href="#DejaVuSans-34" transform="translate(63.623047 0)"/>
       <use xlink:href="#DejaVuSans-30" transform="translate(127.246094 0)"/>
       <use xlink:href="#DejaVuSans-30" transform="translate(190.869141 0)"/>
      </g>
     </g>
    </g>
    <g id="ytick_9">
     <g id="line2d_39">
      <path d="M 57.395 58.969824 
L 853.2 58.969824 
" clip-path="url(#pc931d52ced)" style="fill: none; stroke-dasharray: 2.96,1.28; stroke-dashoffset: 0; stroke: #b0b0b0; stroke-opacity: 0.7; stroke-width: 0.8"/>
     </g>
     <g id="line2d_40">
      <g>
       <use xlink:href="#m5a833ce43e" x="57.395" y="58.969824" style="stroke: #000000; stroke-width: 0.8"/>
      </g>
     </g>
     <g id="text_32">
      <!-- 1600 -->
      <g transform="translate(24.945 62.769042) scale(0.1 -0.1)">
       <use xlink:href="#DejaVuSans-31"/>
       <use xlink:href="#DejaVuSans-36" transform="translate(63.623047 0)"/>
       <use xlink:href="#DejaVuSans-30" transform="translate(127.246094 0)"/>
       <use xlink:href="#DejaVuSans-30" transform="translate(190.869141 0)"/>
      </g>
     </g>
    </g>
    <g id="text_33">
     <!-- Ataques -->
     <g transform="translate(18.865312 222.28475) rotate(-90) scale(0.1 -0.1)">
      <defs>
       <path id="DejaVuSans-41" d="M 2188 4044 
L 1331 1722 
L 3047 1722 
L 2188 4044 
z
M 1831 4666 
L 2547 4666 
L 4325 0 
L 3669 0 
L 3244 1197 
L 1141 1197 
L 716 0 
L 50 0 
L 1831 4666 
z
" transform="scale(0.015625)"/>
       <path id="DejaVuSans-74" d="M 1172 4494 
L 1172 3500 
L 2356 3500 
L 2356 3053 
L 1172 3053 
L 1172 1153 
Q 1172 725 1289 603 
Q 1406 481 1766 481 
L 2356 481 
L 2356 0 
L 1766 0 
Q 1100 0 847 248 
Q 594 497 594 1153 
L 594 3053 
L 172 3053 
L 172 3500 
L 594 3500 
L 594 4494 
L 1172 4494 
z
" transform="scale(0.015625)"/>
       <path id="DejaVuSans-71" d="M 947 1747 
Q 947 1113 1208 752 
Q 1469 391 1925 391 
Q 2381 391 2643 752 
Q 2906 1113 2906 1747 
Q 2906 2381 2643 2742 
Q 2381 3103 1925 3103 
Q 1469 3103 1208 2742 
Q 947 2381 947 1747 
z
M 2906 525 
Q 2725 213 2448 61 
Q 2172 -91 1784 -91 
Q 1150 -91 751 415 
Q 353 922 353 1747 
Q 353 2572 751 3078 
Q 1150 3584 1784 3584 
Q 2172 3584 2448 3432 
Q 2725 3281 2906 2969 
L 2906 3500 
L 3481 3500 
L 3481 -1331 
L 2906 -1331 
L 2906 525 
z
" transform="scale(0.015625)"/>
       <path id="DejaVuSans-75" d="M 544 1381 
L 544 3500 
L 1119 3500 
L 1119 1403 
Q 1119 906 1312 657 
Q 1506 409 1894 409 
Q 2359 409 2629 706 
Q 2900 1003 2900 1516 
L 2900 3500 
L 3475 3500 
L 3475 0 
L 2900 0 
L 2900 538 
Q 2691 219 2414 64 
Q 2138 -91 1772 -91 
Q 1169 -91 856 284 
Q 544 659 544 1381 
z
M 1991 3584 
L 1991 3584 
z
" transform="scale(0.015625)"/>
       <path id="DejaVuSans-65" d="M 3597 1894 
L 3597 1613 
L 953 1613 
Q 991 1019 1311 708 
Q 1631 397 2203 397 
Q 2534 397 2845 478 
Q 3156 559 3463 722 
L 3463 178 
Q 3153 47 2828 -22 
Q 2503 -91 2169 -91 
Q 1331 -91 842 396 
Q 353 884 353 1716 
Q 353 2575 817 3079 
Q 1281 3584 2069 3584 
Q 2775 3584 3186 3129 
Q 3597 2675 3597 1894 
z
M 3022 2063 
Q 3016 2534 2758 2815 
Q 2500 3097 2075 3097 
Q 1594 3097 1305 2825 
Q 1016 2553 972 2059 
L 3022 2063 
z
" transform="scale(0.015625)"/>
       <path id="DejaVuSans-73" d="M 2834 3397 
L 2834 2853 
Q 2591 2978 2328 3040 
Q 2066 3103 1784 3103 
Q 1356 3103 1142 2972 
Q 928 2841 928 2578 
Q 928 2378 1081 2264 
Q 1234 2150 1697 2047 
L 1894 2003 
Q 2506 1872 2764 1633 
Q 3022 1394 3022 966 
Q 3022 478 2636 193 
Q 2250 -91 1575 -91 
Q 1294 -91 989 -36 
Q 684 19 347 128 
L 347 722 
Q 666 556 975 473 
Q 1284 391 1588 391 
Q 1994 391 2212 530 
Q 2431 669 2431 922 
Q 2431 1156 2273 1281 
Q 2116 1406 1581 1522 
L 1381 1569 
Q 847 1681 609 1914 
Q 372 2147 372 2553 
Q 372 3047 722 3315 
Q 1072 3584 1716 3584 
Q 2034 3584 2315 3537 
Q 2597 3491 2834 3397 
z
" transform="scale(0.015625)"/>
      </defs>
      <use xlink:href="#DejaVuSans-41"/>
      <use xlink:href="#DejaVuSans-74" transform="translate(66.658203 0)"/>
      <use xlink:href="#DejaVuSans-61" transform="translate(105.867188 0)"/>
      <use xlink:href="#DejaVuSans-71" transform="translate(167.146484 0)"/>
      <use xlink:href="#DejaVuSans-75" transform="translate(230.623047 0)"/>
      <use xlink:href="#DejaVuSans-65" transform="translate(294.001953 0)"/>
      <use xlink:href="#DejaVuSans-73" transform="translate(355.525391 0)"/>
     </g>
    </g>
   </g>
   <g id="patch_88">
    <path d="M 57.395 363.895 
L 57.395 39.912 
" style="fill: none; stroke: #000000; stroke-width: 0.8; stroke-linejoin: miter; stroke-linecap: square"/>
   </g>
   <g id="patch_89">
    <path d="M 853.2 363.895 
L 853.2 39.912 
" style="fill: none; stroke: #000000; stroke-width: 0.8; stroke-linejoin: miter; stroke-linecap: square"/>
   </g>
   <g id="patch_90">
    <path d="M 57.395 363.895 
L 853.2 363.895 
" style="fill: none; stroke: #000000; stroke-width: 0.8; stroke-linejoin: miter; stroke-linecap: square"/>
   </g>
   <g id="patch_91">
    <path d="M 57.395 39.912 
L 853.2 39.912 
" style="fill: none; stroke: #000000; stroke-width: 0.8; stroke-linejoin: miter; stroke-linecap: square"/>
   </g>
   <g id="text_34">
    <!-- DEF CON 22 CTF -->
    <g transform="translate(405.372813 20.474625) scale(0.12 -0.12)">
     <defs>
      <path id="DejaVuSans-44" d="M 1259 4147 
L 1259 519 
L 2022 519 
Q 2988 519 3436 956 
Q 3884 1394 3884 2338 
Q 3884 3275 3436 3711 
Q 2988 4147 2022 4147 
L 1259 4147 
z
M 628 4666 
L 1925 4666 
Q 3281 4666 3915 4102 
Q 4550 3538 4550 2338 
Q 4550 1131 3912 565 
Q 3275 0 1925 0 
L 628 0 
L 628 4666 
z
" transform="scale(0.015625)"/>
      <path id="DejaVuSans-45" d="M 628 4666 
L 3578 4666 
L 3578 4134 
L 1259 4134 
L 1259 2753 
L 3481 2753 
L 3481 2222 
L 1259 2222 
L 1259 531 
L 3634 531 
L 3634 0 
L 628 0 
L 628 4666 
z
" transform="scale(0.015625)"/>
      <path id="DejaVuSans-46" d="M 628 4666 
L 3309 4666 
L 3309 4134 
L 1259 4134 
L 1259 2759 
L 3109 2759 
L 3109 2228 
L 1259 2228 
L 1259 0 
L 628 0 
L 628 4666 
z
" transform="scale(0.015625)"/>
      <path id="DejaVuSans-43" d="M 4122 4306 
L 4122 3641 
Q 3803 3938 3442 4084 
Q 3081 4231 2675 4231 
Q 1875 4231 1450 3742 
Q 1025 3253 1025 2328 
Q 1025 1406 1450 917 
Q 1875 428 2675 428 
Q 3081 428 3442 575 
Q 3803 722 4122 1019 
L 4122 359 
Q 3791 134 3420 21 
Q 3050 -91 2638 -91 
Q 1578 -91 968 557 
Q 359 1206 359 2328 
Q 359 3453 968 4101 
Q 1578 4750 2638 4750 
Q 3056 4750 3426 4639 
Q 3797 4528 4122 4306 
z
" transform="scale(0.015625)"/>
      <path id="DejaVuSans-4f" d="M 2522 4238 
Q 1834 4238 1429 3725 
Q 1025 3213 1025 2328 
Q 1025 1447 1429 934 
Q 1834 422 2522 422 
Q 3209 422 3611 934 
Q 4013 1447 4013 2328 
Q 4013 3213 3611 3725 
Q 3209 4238 2522 4238 
z
M 2522 4750 
Q 3503 4750 4090 4092 
Q 4678 3434 4678 2328 
Q 4678 1225 4090 567 
Q 3503 -91 2522 -91 
Q 1538 -91 948 565 
Q 359 1222 359 2328 
Q 359 3434 948 4092 
Q 1538 4750 2522 4750 
z
" transform="scale(0.015625)"/>
      <path id="DejaVuSans-4e" d="M 628 4666 
L 1478 4666 
L 3547 763 
L 3547 4666 
L 4159 4666 
L 4159 0 
L 3309 0 
L 1241 3903 
L 1241 0 
L 628 0 
L 628 4666 
z
" transform="scale(0.015625)"/>
      <path id="DejaVuSans-54" d="M -19 4666 
L 3928 4666 
L 3928 4134 
L 2272 4134 
L 2272 0 
L 1638 0 
L 1638 4134 
L -19 4134 
L -19 4666 
z
" transform="scale(0.015625)"/>
     </defs>
     <use xlink:href="#DejaVuSans-44"/>
     <use xlink:href="#DejaVuSans-45" transform="translate(77.001953 0)"/>
     <use xlink:href="#DejaVuSans-46" transform="translate(140.185547 0)"/>
     <use xlink:href="#DejaVuSans-20" transform="translate(197.705078 0)"/>
     <use xlink:href="#DejaVuSans-43" transform="translate(229.492188 0)"/>
     <use xlink:href="#DejaVuSans-4f" transform="translate(299.316406 0)"/>
     <use xlink:href="#DejaVuSans-4e" transform="translate(378.027344 0)"/>
     <use xlink:href="#DejaVuSans-20" transform="translate(452.832031 0)"/>
     <use xlink:href="#DejaVuSans-32" transform="translate(484.619141 0)"/>
     <use xlink:href="#DejaVuSans-32" transform="translate(548.242188 0)"/>
     <use xlink:href="#DejaVuSans-20" transform="translate(611.865234 0)"/>
     <use xlink:href="#DejaVuSans-43" transform="translate(643.652344 0)"/>
     <use xlink:href="#DejaVuSans-54" transform="translate(713.476562 0)"/>
     <use xlink:href="#DejaVuSans-46" transform="translate(774.560547 0)"/>
    </g>
    <!-- Subred PPP -->
    <g transform="translate(421.284063 33.912) scale(0.12 -0.12)">
     <defs>
      <path id="DejaVuSans-53" d="M 3425 4513 
L 3425 3897 
Q 3066 4069 2747 4153 
Q 2428 4238 2131 4238 
Q 1616 4238 1336 4038 
Q 1056 3838 1056 3469 
Q 1056 3159 1242 3001 
Q 1428 2844 1947 2747 
L 2328 2669 
Q 3034 2534 3370 2195 
Q 3706 1856 3706 1288 
Q 3706 609 3251 259 
Q 2797 -91 1919 -91 
Q 1588 -91 1214 -16 
Q 841 59 441 206 
L 441 856 
Q 825 641 1194 531 
Q 1563 422 1919 422 
Q 2459 422 2753 634 
Q 3047 847 3047 1241 
Q 3047 1584 2836 1778 
Q 2625 1972 2144 2069 
L 1759 2144 
Q 1053 2284 737 2584 
Q 422 2884 422 3419 
Q 422 4038 858 4394 
Q 1294 4750 2059 4750 
Q 2388 4750 2728 4690 
Q 3069 4631 3425 4513 
z
" transform="scale(0.015625)"/>
      <path id="DejaVuSans-62" d="M 3116 1747 
Q 3116 2381 2855 2742 
Q 2594 3103 2138 3103 
Q 1681 3103 1420 2742 
Q 1159 2381 1159 1747 
Q 1159 1113 1420 752 
Q 1681 391 2138 391 
Q 2594 391 2855 752 
Q 3116 1113 3116 1747 
z
M 1159 2969 
Q 1341 3281 1617 3432 
Q 1894 3584 2278 3584 
Q 2916 3584 3314 3078 
Q 3713 2572 3713 1747 
Q 3713 922 3314 415 
Q 2916 -91 2278 -91 
Q 1894 -91 1617 61 
Q 1341 213 1159 525 
L 1159 0 
L 581 0 
L 581 4863 
L 1159 4863 
L 1159 2969 
z
" transform="scale(0.015625)"/>
      <path id="DejaVuSans-64" d="M 2906 2969 
L 2906 4863 
L 3481 4863 
L 3481 0 
L 2906 0 
L 2906 525 
Q 2725 213 2448 61 
Q 2172 -91 1784 -91 
Q 1150 -91 751 415 
Q 353 922 353 1747 
Q 353 2572 751 3078 
Q 1150 3584 1784 3584 
Q 2172 3584 2448 3432 
Q 2725 3281 2906 2969 
z
M 947 1747 
Q 947 1113 1208 752 
Q 1469 391 1925 391 
Q 2381 391 2643 752 
Q 2906 1113 2906 1747 
Q 2906 2381 2643 2742 
Q 2381 3103 1925 3103 
Q 1469 3103 1208 2742 
Q 947 2381 947 1747 
z
" transform="scale(0.015625)"/>
      <path id="DejaVuSans-50" d="M 1259 4147 
L 1259 2394 
L 2053 2394 
Q 2494 2394 2734 2622 
Q 2975 2850 2975 3272 
Q 2975 3691 2734 3919 
Q 2494 4147 2053 4147 
L 1259 4147 
z
M 628 4666 
L 2053 4666 
Q 2838 4666 3239 4311 
Q 3641 3956 3641 3272 
Q 3641 2581 3239 2228 
Q 2838 1875 2053 1875 
L 1259 1875 
L 1259 0 
L 628 0 
L 628 4666 
z
" transform="scale(0.015625)"/>
     </defs>
     <use xlink:href="#DejaVuSans-53"/>
     <use xlink:href="#DejaVuSans-75" transform="translate(63.476562 0)"/>
     <use xlink:href="#DejaVuSans-62" transform="translate(126.855469 0)"/>
     <use xlink:href="#DejaVuSans-72" transform="translate(190.332031 0)"/>
     <use xlink:href="#DejaVuSans-65" transform="translate(229.195312 0)"/>
     <use xlink:href="#DejaVuSans-64" transform="translate(290.71875 0)"/>
     <use xlink:href="#DejaVuSans-20" transform="translate(354.195312 0)"/>
     <use xlink:href="#DejaVuSans-50" transform="translate(385.982422 0)"/>
     <use xlink:href="#DejaVuSans-50" transform="translate(446.285156 0)"/>
     <use xlink:href="#DejaVuSans-50" transform="translate(506.587891 0)"/>
    </g>
   </g>
  </g>
 </g>
 <defs>
  <clipPath id="pc931d52ced">
   <rect x="57.395" y="39.912" width="795.805" height="323.983"/>
  </clipPath>
 </defs>
</svg>
